<svg width="184" height="184" viewBox="0 0 184 184" fill="none" xmlns="http://www.w3.org/2000/svg">
<path d="M56.1884 16.3553C55.4792 17.115 54.8714 18.1281 54.8714 18.6346C54.8714 19.9009 54.5675 20.0022 50.8699 20.1541C39.8279 20.61 30.6599 27.4986 27.013 38.1353C26.0507 40.9212 26 42.6433 26 95.27V149.518L27.2156 152.962C28.8365 157.369 31.521 161.37 34.6108 163.953C35.9277 165.068 37.194 165.979 37.4473 165.979C37.6499 165.979 38.207 166.283 38.6122 166.638C39.0681 167.043 40.689 167.853 42.2085 168.512C44.9944 169.727 45.0957 169.727 67.0278 169.879C91.3406 170.082 91.0367 170.082 92.1003 166.992C92.9108 164.713 91.8977 161.826 90.0236 160.965C89.1626 160.61 82.7805 160.408 69.3578 160.408C51.3765 160.408 49.6543 160.357 46.6659 159.395C42.867 158.23 39.4733 155.191 37.2447 151.037L35.8771 148.505L35.7251 108.085L35.5732 67.7157H36.7381C37.3966 67.7157 62.4692 67.6651 92.5056 67.6144L147.057 67.4624V72.9328C147.057 79.2642 147.716 81.4422 150.096 82.6578C152.072 83.6709 154.098 83.3163 155.719 81.5942L156.934 80.2772L157.086 62.4986C157.289 39.6042 156.985 37.7808 151.768 30.3857C147.412 24.2062 139.358 20.1541 131.305 20.1035C128.62 20.1035 128.418 20.0022 128.114 18.7865C126.847 13.8227 119.655 13.8227 118.389 18.7865L118.085 20.1035H107.296H96.507L96.1525 18.5839C95.1901 14.1266 88.8586 13.7721 86.9845 18.0774L86.0728 20.1035L75.3853 20.0022C64.8498 19.8502 64.7485 19.8502 64.5965 18.7359C64.4952 18.1281 63.7354 17.0137 62.925 16.3046C60.7977 14.5318 58.0118 14.5825 56.1884 16.3553ZM54.8714 31.3481C54.8714 33.2222 57.4546 35.2989 59.7846 35.2989C61.1016 35.2989 61.912 34.8937 63.0263 33.7287C63.8367 32.8676 64.4952 31.7533 64.4952 31.2468C64.4952 30.7402 65.0017 30.2337 65.6602 30.0311C67.1291 29.6259 74.1697 29.6259 80.9063 30.0818C86.0222 30.3857 86.3261 30.4363 86.5793 31.6013C87.0352 33.3741 89.6184 35.2989 91.5432 35.2989C93.6705 35.2989 95.7473 33.7287 96.1525 31.8039C96.3044 30.9935 96.8109 30.1831 97.2668 30.0311C98.1279 29.6766 117.527 29.9298 117.831 30.2844C117.983 30.3857 118.439 31.3481 118.946 32.4117C120.009 34.6404 121.681 35.5015 124.213 35.0963C126.24 34.7924 127.556 33.4754 128.063 31.3481C128.367 29.7779 128.367 29.7779 131.355 29.9805C133.027 30.0818 135.205 30.4363 136.269 30.7909C140.169 32.1078 144.12 35.8054 145.842 39.6549C146.956 42.1874 147.057 43.0992 147.057 50.1397V57.8387H91.2899H35.5225L35.7251 49.7345C35.9277 41.9848 35.9784 41.529 37.346 39.0471C39.7266 34.6404 42.2592 32.4117 46.3619 31.0442C49.1478 30.1324 50.6167 29.8792 52.9467 29.9298C54.6688 29.9805 54.8714 30.1324 54.8714 31.3481Z" fill="white"/>
<path d="M79 165L137.314 165.397C145.671 165.454 152.462 158.671 152.416 150.314L152 75" stroke="white" stroke-width="9"/>
<path d="M81.1367 105.818C73.1594 115.227 75.2049 123.818 83.3867 118.5L85.4316 128.728L63.3408 141L57 107.659L79.0908 95.3867L81.1367 105.818ZM95.4541 94.5684C113.249 85.7729 125.587 94.4344 111 114.204C115.705 117.681 123.253 116.241 127.978 106.432C125.523 129.341 95.6885 140.274 89.5225 127.091L87.0684 115.228C93.6138 105.818 94.1171 99.6002 84.6133 102.341L82.7725 93.75L94.0225 87L95.4541 94.5684Z" fill="white"/>
<path d="M88.1004 55L79 35H83.8117L90.8201 51.1702H92.4937L99.2929 35.1064H104L95.318 55H88.1004Z" fill="#FDFBF7"/>
</svg>
